<svg width="40" height="40" viewBox="0 0 40 40" fill="none" xmlns="http://www.w3.org/2000/svg">
<g clip-path="url(#clip0_6167_4742)">
<path d="M27.572 0H8.95014C8.61772 0 8.29867 0.131964 8.06481 0.367494L0.365823 8.06481C0.131964 8.30034 0 8.61772 0 8.95014V31.576C0 33.0544 1.20271 34.2587 2.68103 34.2587H14.9119V31.7531H2.68103C2.58415 31.7531 2.50564 31.6729 2.50564 31.576V10.1278H8.87497C9.56652 10.1278 10.1278 9.56652 10.1278 8.87497V2.50564H27.572C27.6689 2.50564 27.7491 2.58415 27.7491 2.6827V21.6654H30.2547V2.6827C30.2547 1.20271 29.052 0 27.572 0Z" fill="#99A1BE"/>
<path d="M23.9922 21.5569H6.26234C5.57078 21.5569 5.00952 20.9956 5.00952 20.3041C5.00952 19.6125 5.57078 19.0513 6.26234 19.0513H23.9906C24.6821 19.0513 25.2434 19.6125 25.2434 20.3041C25.2434 20.9956 24.6821 21.5569 23.9906 21.5569H23.9922Z" fill="#99A1BE"/>
<path d="M23.9922 27.5056H6.26234C5.57078 27.5056 5.00952 26.9444 5.00952 26.2528C5.00952 25.5613 5.57078 25 6.26234 25H23.9906C24.6821 25 25.2434 25.5613 25.2434 26.2528C25.2434 26.9444 24.6821 27.5056 23.9906 27.5056H23.9922Z" fill="#99A1BE"/>
<path d="M23.9922 15.2058H6.26234C5.57078 15.2058 5.00952 14.6446 5.00952 13.953C5.00952 13.2615 5.57078 12.7002 6.26234 12.7002H23.9906C24.6821 12.7002 25.2434 13.2615 25.2434 13.953C25.2434 14.6446 24.6821 15.2058 23.9906 15.2058H23.9922Z" fill="#99A1BE"/>
<path d="M23.9924 8.85671H13.8864C13.1948 8.85671 12.6335 8.29545 12.6335 7.60389C12.6335 6.91234 13.1948 6.35107 13.8864 6.35107H23.9924C24.684 6.35107 25.2453 6.91234 25.2453 7.60389C25.2453 8.29545 24.684 8.85671 23.9924 8.85671Z" fill="#99A1BE"/>
<g clip-path="url(#clip1_6167_4742)">
<path d="M33.2227 21.4467L20.7241 34.1219C20.2702 34.5812 19.9609 35.1683 19.8346 35.8053L19 40.0002L23.0887 38.9408C23.6286 38.8019 24.1246 38.5241 24.5273 38.1352L37.4505 25.723L33.2227 21.4448V21.4467Z" fill="#4695FC"/>
<path d="M34.9375 19.7985C36.0704 18.8521 37.6279 18.7484 38.7078 19.4799C40.0493 20.3893 40.4629 22.4654 39.3941 24.047C37.9098 22.6302 36.4236 21.2153 34.9393 19.7985H34.9375Z" fill="#4695FC"/>
</g>
</g>
<defs>
<clipPath id="clip0_6167_4742">
<rect width="40" height="40" fill="white"/>
</clipPath>
<clipPath id="clip1_6167_4742">
<rect width="21" height="21" fill="white" transform="translate(19 19)"/>
</clipPath>
</defs>
</svg>
