<svg width="32" height="40" viewBox="0 0 32 40" fill="none" xmlns="http://www.w3.org/2000/svg">
<g id="Isolation_Mode" clip-path="url(#clip0_5434_6419)">
<path id="Vector" d="M29.8315 5.71582H27.4637V7.46982C27.4637 8.75458 26.4463 9.80331 25.2 9.80331H14.4549C13.2086 9.80331 12.1913 8.75458 12.1913 7.46982V5.71582H9.94545C9.01724 5.71582 8.27686 6.49459 8.27686 7.4359V17.8808C13.4993 17.9133 17.74 22.3004 17.74 27.6953C17.74 29.0422 17.4672 30.368 16.9448 31.6018L18.7464 33.1975H29.8315C30.7556 33.1975 31.5001 32.4301 31.5001 31.4732V7.4359C31.5001 6.49459 30.7556 5.71582 29.8315 5.71582ZM27.6255 27.5553C27.4609 27.7249 27.2278 27.8324 26.9742 27.8324H21.0429C20.5302 27.8324 20.1188 27.4083 20.1188 26.8797C20.1188 26.614 20.223 26.378 20.3876 26.2041C20.5562 26.0345 20.7852 25.9271 21.0429 25.9271H26.9742C27.4829 25.9271 27.8983 26.3511 27.8983 26.8797C27.8983 27.1454 27.7941 27.3815 27.6255 27.5553ZM27.6255 21.588C27.4609 21.7577 27.2278 21.8651 26.9742 21.8651H18.8766C18.3639 21.8651 17.9525 21.4411 17.9525 20.9125C17.9525 20.6467 18.0567 20.4107 18.2213 20.2369C18.3899 20.0673 18.623 19.9598 18.8766 19.9598H26.9742C27.4829 19.9598 27.8983 20.3839 27.8983 20.9125C27.8983 21.1782 27.7941 21.4142 27.6255 21.588ZM27.6255 15.6222C27.4609 15.7918 27.2278 15.8992 26.9742 15.8992H12.8055C12.2927 15.8992 11.8814 15.4752 11.8814 14.9466C11.8814 14.6851 11.9856 14.4448 12.1501 14.2752C12.3188 14.1014 12.5478 13.994 12.8055 13.994H26.9742C27.4829 13.994 27.8983 14.4222 27.8983 14.9466C27.8983 15.2123 27.7941 15.4483 27.6255 15.6222Z" fill="#99A1BE"/>
<path id="Vector_2" d="M25.1998 3.54475H23.4202C23.3311 1.57309 21.7653 0 19.828 0C17.8906 0 16.3249 1.57309 16.2357 3.54475H14.4588C14.0434 3.54475 13.7034 3.89527 13.7034 4.32352V7.4697C13.7034 7.90219 14.0434 8.24847 14.4588 8.24847H25.1998C25.6153 8.24847 25.9553 7.90078 25.9553 7.4697V4.32352C25.9553 3.89527 25.6153 3.54475 25.1998 3.54475ZM19.828 5.13621C19.0684 5.13621 18.4528 4.50161 18.4528 3.7186C18.4528 2.93559 19.0684 2.30098 19.828 2.30098C20.5875 2.30098 21.2031 2.93559 21.2031 3.7186C21.2031 4.50161 20.5875 5.13621 19.828 5.13621Z" fill="#99A1BE"/>
<path id="Vector_3" d="M14.6714 32.037C15.4667 30.7862 15.9369 29.2979 15.9369 27.6937C15.9369 23.3066 12.475 19.7378 8.21915 19.7378C3.96333 19.7378 0.5 23.3066 0.5 27.6937C0.5 32.0808 3.96333 35.6496 8.21778 35.6496C9.77395 35.6496 11.2177 35.1634 12.4311 34.3451L16.5265 39.258C16.5909 39.3343 16.6705 39.4162 16.7472 39.4855C17.6124 40.2516 18.9149 40.1498 19.658 39.258C20.4011 38.3661 20.3024 37.0234 19.4373 36.2574L14.6714 32.037ZM2.36055 27.6937C2.36055 24.3638 4.9889 21.6557 8.21778 21.6557C11.4467 21.6557 14.075 24.3638 14.075 27.6937C14.075 31.0236 11.448 33.7316 8.21778 33.7316C4.98753 33.7316 2.36055 31.0236 2.36055 27.6937Z" fill="#4695FC"/>
<path id="Vector_4" d="M11.5317 26.7875L7.97925 30.4496C7.77633 30.6588 7.51172 30.7619 7.2471 30.7619C6.98248 30.7619 6.71649 30.6574 6.51494 30.4496L4.75037 28.6306C4.3459 28.2136 4.3459 27.5366 4.75037 27.1197C5.15484 26.7027 5.81158 26.7027 6.21605 27.1197L7.24847 28.1854L10.0688 25.278C10.4732 24.8611 11.13 24.8611 11.5345 25.278C11.9389 25.695 11.9389 26.372 11.5345 26.7889L11.5317 26.7875Z" fill="#4695FC"/>
</g>
<defs>
<clipPath id="clip0_5434_6419">
<rect width="31" height="40" fill="white" transform="translate(0.5)"/>
</clipPath>
</defs>
</svg>
