<svg width="40" height="40" viewBox="0 0 40 40" fill="none" xmlns="http://www.w3.org/2000/svg">
<g clip-path="url(#clip0_5434_6406)">
<path d="M27.572 0H8.95014C8.61772 0 8.29867 0.131964 8.06481 0.367494L0.365823 8.06481C0.131964 8.30034 0 8.61772 0 8.95014V31.576C0 33.0544 1.20271 34.2587 2.68103 34.2587H14.9119V31.7531H2.68103C2.58415 31.7531 2.50564 31.6729 2.50564 31.576V10.1278H8.87497C9.56652 10.1278 10.1278 9.56652 10.1278 8.87497V2.50564H27.572C27.6689 2.50564 27.7491 2.58415 27.7491 2.6827V21.6654H30.2547V2.6827C30.2547 1.20271 29.052 0 27.572 0Z" fill="#99A1BE"/>
<path d="M14.9151 25.4023C14.9118 25.4424 14.9118 25.4825 14.9118 25.5226V27.908H6.26234C5.57078 27.908 5.00952 27.3467 5.00952 26.6552C5.00952 25.9636 5.57078 25.4023 6.26234 25.4023H14.9151Z" fill="#99A1BE"/>
<path d="M23.9922 21.5569H6.26234C5.57078 21.5569 5.00952 20.9956 5.00952 20.3041C5.00952 19.6125 5.57078 19.0513 6.26234 19.0513H23.9906C24.6821 19.0513 25.2434 19.6125 25.2434 20.3041C25.2434 20.9956 24.6821 21.5569 23.9906 21.5569H23.9922Z" fill="#99A1BE"/>
<path d="M23.9922 15.2058H6.26234C5.57078 15.2058 5.00952 14.6446 5.00952 13.953C5.00952 13.2615 5.57078 12.7002 6.26234 12.7002H23.9906C24.6821 12.7002 25.2434 13.2615 25.2434 13.953C25.2434 14.6446 24.6821 15.2058 23.9906 15.2058H23.9922Z" fill="#99A1BE"/>
<path d="M23.9924 8.85671H13.8864C13.1948 8.85671 12.6335 8.29545 12.6335 7.60389C12.6335 6.91234 13.1948 6.35107 13.8864 6.35107H23.9924C24.684 6.35107 25.2453 6.91234 25.2453 7.60389C25.2453 8.29545 24.684 8.85671 23.9924 8.85671Z" fill="#99A1BE"/>
<path d="M24.4667 32.0856L17.4175 38.2144V25.9585L24.4667 32.0856Z" fill="#4695FC"/>
<path d="M31.0414 33.7461L38.2343 40.0002H19.1814L26.3759 33.7461L26.558 33.9048C27.171 34.4376 27.9394 34.7049 28.7078 34.7049C29.4762 34.7049 30.2463 34.4376 30.8593 33.9048L31.0414 33.7461Z" fill="#4695FC"/>
<path d="M28.2019 32.0135L19.1799 24.1709H38.2361L29.2158 32.0135C28.9269 32.2658 28.4909 32.2658 28.2019 32.0135Z" fill="#4695FC"/>
<path d="M39.9999 25.9565V38.2141L32.9507 32.0853L39.9999 25.9565Z" fill="#4695FC"/>
</g>
<defs>
<clipPath id="clip0_5434_6406">
<rect width="40" height="40" fill="white"/>
</clipPath>
</defs>
</svg>
