<svg width="56" height="40" viewBox="0 0 56 40" fill="none" xmlns="http://www.w3.org/2000/svg">
<g id="_?&#235;&#141;&#137;&#236;&#148;&#160;??1" clip-path="url(#clip0_5434_6368)">
<path id="Vector" d="M11.7253 17.3082C13.6977 17.5268 15.4701 16.0966 15.6883 14.1198C15.9064 12.143 14.4794 10.3667 12.507 10.1481C10.5346 9.92942 8.76214 11.3596 8.544 13.3364C8.32585 15.3132 9.75289 17.0895 11.7253 17.3082Z" fill="#99A1BE"/>
<path id="Vector_2" d="M11.8889 31.7104H6.70788C5.4899 31.7104 4.4537 30.8359 4.23555 29.6335L2.46311 19.6039C2.34495 18.9206 1.6996 18.4652 1.01789 18.5927C0.336187 18.7111 -0.109195 19.3579 0.00896766 20.0411L1.78141 30.0707C2.20861 32.4665 4.27191 34.2065 6.70788 34.2065H11.0072V38.7521C11.0072 39.4444 11.5616 40.0001 12.2524 40.0001C12.9432 40.0001 13.4977 39.4444 13.4977 38.7521V33.3228C13.4977 32.4301 12.7705 31.7013 11.8798 31.7013L11.8889 31.7104Z" fill="#99A1BE"/>
<path id="Vector_3" d="M15.9702 26.4541H12.698L13.5524 22.5552L15.8611 23.6666C16.0884 23.7759 16.3338 23.8305 16.5792 23.8305C16.6065 23.8305 16.6247 23.8305 16.6519 23.8305L20.1332 23.6757C21.0512 23.6301 21.7602 22.8558 21.7238 21.9357C21.6784 21.0157 20.8967 20.3051 19.9877 20.3507L16.9246 20.4873C16.9246 20.4873 13.4434 18.6654 13.0071 18.5652C12.5253 18.4468 10.5438 18.0186 10.5438 18.0186C9.84394 17.8638 9.13496 18.0004 8.53506 18.383C7.93515 18.7747 7.52613 19.376 7.3807 20.0683L5.92639 27.0553C5.77187 27.8205 5.96275 28.613 6.45358 29.2234C6.94441 29.8337 7.68065 30.1799 8.46234 30.1799H14.2341C14.6068 30.1799 14.9067 30.4805 14.9067 30.854V38.0505C14.9067 39.0799 15.743 39.918 16.7701 39.918C17.7972 39.918 18.6334 39.0799 18.6334 38.0505V29.1232C18.6334 27.6474 17.4336 26.445 15.9611 26.445L15.9702 26.4541Z" fill="#99A1BE"/>
<path id="Vector_4" d="M44.2836 17.3082C46.256 17.0895 47.6831 15.3132 47.4649 13.3364C47.2468 11.3596 45.4743 9.92942 43.5019 10.1481C41.5295 10.3667 40.1025 12.143 40.3206 14.1198C40.5388 16.0966 42.3112 17.5268 44.2836 17.3082Z" fill="#99A1BE"/>
<path id="Vector_5" d="M54.973 18.5834C54.3003 18.4559 53.6459 18.9114 53.5277 19.5946L51.7553 29.6242C51.5462 30.8266 50.501 31.7012 49.2921 31.7012H44.1111C43.2203 31.7012 42.4932 32.4299 42.4932 33.3227V38.752C42.4932 39.4443 43.0476 40 43.7384 40C44.4292 40 44.9837 39.4443 44.9837 38.752V34.2063H49.283C51.7099 34.2063 53.7822 32.4664 54.2094 30.0706L55.9819 20.041C56.1 19.3577 55.6456 18.711 54.973 18.5925V18.5834Z" fill="#99A1BE"/>
<path id="Vector_6" d="M49.5374 29.2327C50.0283 28.6223 50.2191 27.8298 50.0646 27.0646L48.6103 20.0776C48.4649 19.3762 48.0559 18.7749 47.4559 18.3923C46.856 18.0006 46.1471 17.8731 45.4472 18.0279C45.4472 18.0279 43.4657 18.4561 42.9839 18.5745C42.5567 18.6747 39.0664 20.4966 39.0664 20.4966L36.0033 20.36C35.0943 20.3235 34.3126 21.0341 34.2672 21.945C34.2217 22.8651 34.9398 23.6394 35.8487 23.685L39.33 23.8398C39.33 23.8398 39.3754 23.8398 39.4027 23.8398C39.6481 23.8398 39.9026 23.7852 40.1208 23.6759L42.4295 22.5645L43.2839 26.4634H40.0117C38.5392 26.4634 37.3394 27.6658 37.3394 29.1416V38.0689C37.3394 39.0983 38.1756 39.9364 39.2027 39.9364C40.2298 39.9364 41.0661 39.0983 41.0661 38.0689V30.8724C41.0661 30.4989 41.366 30.1983 41.7387 30.1983H47.5105C48.2922 30.1983 49.0284 29.8521 49.5192 29.2418L49.5374 29.2327Z" fill="#99A1BE"/>
<path id="Vector_7" d="M35.0307 25.0879H20.9784C20.2876 25.0879 19.7332 25.6436 19.7332 26.3359C19.7332 27.0282 20.2876 27.5839 20.9784 27.5839H26.7593V38.7522C26.7593 39.4445 27.3137 40.0002 28.0045 40.0002C28.6953 40.0002 29.2498 39.4445 29.2498 38.7522V27.5839H35.0307C35.7215 27.5839 36.2759 27.0282 36.2759 26.3359C36.2759 25.6436 35.7215 25.0879 35.0307 25.0879Z" fill="#99A1BE"/>
<path id="Vector_8" d="M33.9944 8.17143C33.9944 9.02772 33.7944 9.83847 33.4218 10.6037C34.567 11.1594 35.7668 11.6968 36.8394 12.1067C37.412 12.3254 37.8847 11.6148 37.4938 11.1411C36.8394 10.3942 36.5303 9.79292 36.3667 9.31923C38.0301 8.34451 39.0936 6.86876 39.0936 5.23815C39.0936 2.35043 35.8305 0.00927734 31.7857 0.00927734C29.8678 0.00927734 28.1499 0.528521 26.8501 1.39393C30.9767 2.0316 33.9853 4.78268 33.9853 8.18054L33.9944 8.17143Z" fill="#4695FC"/>
<path id="Vector_9" d="M20.4058 12.2432C20.2422 12.7169 19.924 13.3364 19.2878 14.0742C18.8878 14.5479 19.3605 15.2402 19.9422 15.0216C21.142 14.5753 22.5236 13.9467 23.8052 13.3181C24.1961 13.3637 24.5869 13.391 24.9959 13.391C29.0407 13.391 32.3129 11.0499 32.3129 8.15303C32.3129 5.25619 29.0407 2.91504 24.9959 2.91504C20.9512 2.91504 17.679 5.25619 17.679 8.15303C17.679 9.80185 18.7424 11.2685 20.4058 12.225V12.2432ZM28.6135 7.09632C29.2044 7.09632 29.677 7.57912 29.677 8.16214C29.677 8.74515 29.1953 9.22795 28.6135 9.22795C28.0318 9.22795 27.5501 8.74515 27.5501 8.16214C27.5501 7.57912 28.0318 7.09632 28.6135 7.09632ZM24.9959 7.09632C25.5868 7.09632 26.0685 7.57912 26.0685 8.16214C26.0685 8.74515 25.5868 9.22795 24.9959 9.22795C24.4051 9.22795 23.9325 8.74515 23.9325 8.16214C23.9325 7.57912 24.4142 7.09632 24.9959 7.09632ZM21.3784 7.09632C21.9692 7.09632 22.4509 7.57912 22.4509 8.16214C22.4509 8.74515 21.9692 9.22795 21.3784 9.22795C20.7875 9.22795 20.3149 8.74515 20.3149 8.16214C20.3149 7.57912 20.7966 7.09632 21.3784 7.09632Z" fill="#4695FC"/>
</g>
<defs>
<clipPath id="clip0_5434_6368">
<rect width="56" height="40" fill="white"/>
</clipPath>
</defs>
</svg>
