<svg width="37" height="40" viewBox="0 0 37 40" fill="none" xmlns="http://www.w3.org/2000/svg">
<g id="Icon" clip-path="url(#clip0_5434_6399)">
<path id="Vector" d="M28.7041 23.9302C24.2641 23.9302 20.6641 27.5302 20.6641 31.9702C20.6641 36.4102 24.2641 40.0102 28.7041 40.0102C33.1441 40.0102 36.7441 36.4102 36.7441 31.9702C36.7441 27.5302 33.1441 23.9302 28.7041 23.9302ZM31.9841 33.1502H28.7041C28.0541 33.1502 27.5241 32.6202 27.5241 31.9702V27.5102C27.5241 26.8602 28.0541 26.3302 28.7041 26.3302C29.3541 26.3302 29.8841 26.8602 29.8841 27.5102V30.7902H31.9841C32.6341 30.7902 33.1641 31.3202 33.1641 31.9702C33.1641 32.6202 32.6341 33.1502 31.9841 33.1502Z" fill="#4695FC"/>
<path id="Vector_2" d="M13 14C9.13354 14 6 10.8661 6 7.00085C6 3.13562 9.13524 0 13 0C16.8648 0 20 3.13392 20 7.00085C20 10.8678 16.8665 14 13 14Z" fill="#99A1BE"/>
<path id="Vector_3" d="M25 22.2171C24.5571 18.7637 22.1052 16.018 18.9017 15.0263C18.5849 14.9284 18.2439 15.1146 18.1356 15.4243L14.8513 24.759L14.0965 18.6578H14.5992C14.903 18.6578 15.1471 18.4123 15.1471 18.1122V16.4337C15.1471 16.132 14.9014 15.8897 14.5992 15.8897H11.845C11.5428 15.8897 11.2971 16.132 11.2971 16.4337V18.1122C11.2971 18.4123 11.5428 18.6578 11.845 18.6578H12.3477L11.5929 24.759L8.30533 15.4243C8.19542 15.113 7.85438 14.9284 7.53759 15.0263C4.31632 16.0245 1.85148 18.7958 1.42962 22.2781L1.00939 27.2158C0.8817 28.7162 2.07291 30.0016 3.58899 30L18.252 29.9856C18.3328 26.0748 21.2227 22.8493 25 22.2187V22.2171Z" fill="#99A1BE"/>
</g>
<defs>
<clipPath id="clip0_5434_6399">
<rect width="39" height="40" fill="white" transform="translate(-2)"/>
</clipPath>
</defs>
</svg>
