<svg width="40" height="37" viewBox="0 0 40 37" fill="none" xmlns="http://www.w3.org/2000/svg">
<g id="Inner Icon" clip-path="url(#clip0_5434_6436)">
<path id="Main Vector" d="M17.0825 13.4741H5.48978C2.38196 13.4741 0 15.8913 0 19.0062V26.6383C0 29.7461 2.37491 32.3395 5.48978 32.3395H6.40592L5.72939 36.4903L12.8894 32.3395H17.0825C20.1903 32.3395 22.5722 29.7532 22.5722 26.6383V19.0062C22.5722 15.8984 20.1973 13.4741 17.0825 13.4741ZM11.4447 19.5136C11.4447 20.9935 11.0571 22.3748 10.2889 23.6433C9.52079 24.9118 8.40733 26.0464 6.94855 27.033L6.06061 25.9054C6.93446 25.3346 7.66032 24.7003 8.25229 24.0097C8.84426 23.3191 9.28118 22.6144 9.56307 21.8955C9.85201 21.1767 9.99295 20.4791 9.99295 19.7955H6.36364V18.4776H11.4517V19.5136H11.4447ZM16.0536 22.8187H14.5314V28.231H13.0867V17.7025H14.5314V21.515H16.0536V22.8258V22.8187Z" fill="#99A1BE"/>
<g id="Icon Details">
<path id="Small Vector 1" d="M26.1875 11.5364C26.1875 11.9099 26.2932 12.1002 26.5046 12.1002C26.561 12.1002 26.7231 12.0509 26.9838 11.9451C27.2446 11.8394 27.4912 11.6914 27.7379 11.5082C27.5406 10.9585 27.3996 10.3243 27.301 9.60547C26.5681 10.3031 26.2016 10.9515 26.2016 11.5435L26.1875 11.5364Z" fill="#4695FC"/>
<path id="Small Vector 2" d="M28.9005 10.2959C29.2317 9.79555 29.4925 9.27406 29.6757 8.73142C29.3727 8.71733 29.0344 8.78076 28.6609 8.90761C28.7102 9.38682 28.7877 9.85193 28.9005 10.2959Z" fill="#4695FC"/>
<path id="Small Vector 3" d="M34.5102 0H22.9175C19.8097 0 17.4277 2.4172 17.4277 5.53206V11.8111C21.2332 11.9873 24.1719 15.0106 24.2424 18.8654H27.1106L34.2706 23.0162L33.594 18.8654H34.5102C37.618 18.8654 40 16.2791 40 13.1642V5.53206C40 2.42424 37.6251 0 34.5102 0ZM24.4397 14.8203V14.7992H24.4961L24.4397 14.8203ZM32.9668 14.8132L32.9105 14.7992H32.9668V14.8132ZM33.1289 12.7696C32.4876 13.3897 31.6208 13.7562 30.5144 13.8619L29.9365 12.5088C31.7547 12.2763 32.6638 11.6209 32.6638 10.5426C32.6638 10.1762 32.5299 9.83791 32.2621 9.52784C31.9943 9.21776 31.6208 8.9993 31.1557 8.8654C30.6835 10.148 30.1198 11.1698 29.4573 11.9309C29.5278 12.1071 29.6335 12.3397 29.7815 12.6286L28.5412 13.3051C28.4284 13.1149 28.3509 12.9598 28.2945 12.84C27.5898 13.291 26.9767 13.5095 26.4411 13.5095C25.9619 13.5095 25.5532 13.3263 25.229 12.9598C24.9048 12.5934 24.7357 12.1283 24.7357 11.5715C24.7357 10.9161 24.9542 10.2537 25.384 9.59126C25.8139 8.92882 26.42 8.36505 27.1811 7.89993C27.1811 7.463 27.1952 7.03312 27.2163 6.60324C26.9062 6.61734 26.3847 6.62438 25.6589 6.62438L25.5602 5.21494C26.124 5.23608 26.7371 5.23608 27.3925 5.22903C27.5264 4.46794 27.6392 3.89006 27.7449 3.48837L29.1966 3.67865C29.0486 4.179 28.9358 4.6723 28.8583 5.14447C30.2255 5.0599 31.4587 4.926 32.5511 4.74278L32.6991 6.11698C31.3319 6.31431 29.9788 6.45525 28.6399 6.53982C28.6046 6.89218 28.5905 7.18111 28.5905 7.40662C29.1684 7.29387 29.6828 7.25159 30.1268 7.27273C30.1761 7.09655 30.2325 6.87808 30.296 6.61734L31.7054 6.77942L31.5433 7.49119C32.1846 7.64623 32.7695 8.00564 33.291 8.55532C33.8125 9.105 34.0733 9.7604 34.0733 10.5215C34.0733 11.3813 33.7561 12.1283 33.1148 12.7484L33.1289 12.7696Z" fill="#4695FC"/>
</g>
</g>
<defs>
<clipPath id="clip0_5434_6436">
<rect width="40" height="36.4905" fill="white"/>
</clipPath>
</defs>
</svg>
