<svg width="40" height="40" viewBox="0 0 40 40" fill="none" xmlns="http://www.w3.org/2000/svg">
<g id="Isolation_Mode" clip-path="url(#clip0_5434_6427)">
<path id="Vector" d="M22.861 18.8763C21.6975 17.1095 20.0059 15.7533 18.041 15C16.6043 15.9338 14.8879 16.4804 13.0459 16.4804C11.2039 16.4804 9.48877 15.9325 8.05076 15C5.36951 16.0332 3.18111 18.1793 2.17973 20.9923C1.46988 22.9959 1.02278 25.0871 0.867217 27.2149C0.792702 28.18 1.57577 29 2.54708 29H17.8541C17.7913 28.558 17.7613 28.1107 17.7613 27.6556C17.7613 23.9035 19.8137 20.6183 22.8623 18.8763H22.861Z" fill="#99A1BE"/>
<path id="Vector_2" d="M12.8623 15C16.7282 15 19.8623 11.642 19.8623 7.5C19.8623 3.35802 16.7282 0 12.8623 0C8.99646 0 5.8623 3.35802 5.8623 7.5C5.8623 11.642 8.99646 15 12.8623 15Z" fill="#99A1BE"/>
<path id="Vector_3" d="M34.1714 31.2992C34.9667 30.0484 35.4369 28.5601 35.4369 26.9559C35.4369 22.5688 31.975 19 27.7192 19C23.4633 19 20 22.5688 20 26.9559C20 31.343 23.4633 34.9118 27.7178 34.9118C29.2739 34.9118 30.7177 34.4256 31.9311 33.6073L36.0265 38.5202C36.0909 38.5965 36.1705 38.6785 36.2472 38.7477C37.1124 39.5138 38.4149 39.412 39.158 38.5202C39.9011 37.6283 39.8024 36.2856 38.9373 35.5196L34.1714 31.2992ZM21.8605 26.9559C21.8605 23.626 24.4889 20.918 27.7178 20.918C30.9467 20.918 33.575 23.626 33.575 26.9559C33.575 30.2858 30.948 32.9939 27.7178 32.9939C24.4875 32.9939 21.8605 30.2858 21.8605 26.9559Z" fill="#4695FC"/>
<path id="Vector_4" d="M31.032 26.0497L27.4795 29.7118C27.2766 29.921 27.012 30.0242 26.7473 30.0242C26.4827 30.0242 26.2167 29.9196 26.0152 29.7118L24.2506 27.8928C23.8461 27.4758 23.8461 26.7988 24.2506 26.3819C24.6551 25.9649 25.3118 25.9649 25.7163 26.3819L26.7487 27.4476L29.569 24.5402C29.9735 24.1233 30.6302 24.1233 31.0347 24.5402C31.4392 24.9572 31.4392 25.6342 31.0347 26.0511L31.032 26.0497Z" fill="#4695FC"/>
</g>
<defs>
<clipPath id="clip0_5434_6427">
<rect width="40" height="40" fill="white"/>
</clipPath>
</defs>
</svg>
