<svg width="35" height="40" viewBox="0 0 35 40" fill="none" xmlns="http://www.w3.org/2000/svg">
<g id="Icon" clip-path="url(#clip0_5434_6382)">
<path id="Vector" d="M4.25 29.9402C3.53 29.9402 2.94 29.3502 2.94 28.6302V11.8902H28.44V21.8302C29.49 22.0702 30.48 22.4702 31.38 23.0002V7.47021C31.38 5.27021 29.58 3.47021 27.38 3.47021H26.52V5.16021C26.52 6.97021 25.05 8.45021 23.24 8.45021H21.22C19.41 8.45021 17.94 6.97021 17.94 5.16021V3.47021H13.42V5.16021C13.42 6.97021 11.95 8.45021 10.13 8.45021H8.12C6.31 8.45021 4.84 6.97021 4.84 5.16021V3.47021H4.23C1.91 3.48021 0 5.39021 0 7.72021V28.6402C0 30.9802 1.91 32.8902 4.25 32.8902H15.79C15.75 32.5902 15.74 32.2802 15.74 31.9702C15.74 31.2802 15.8 30.6002 15.94 29.9502H4.25V29.9402Z" fill="#99A1BE"/>
<path id="Vector_2" d="M10.1501 14.29H6.08008C5.80394 14.29 5.58008 14.5139 5.58008 14.79V17.04C5.58008 17.3162 5.80394 17.54 6.08008 17.54H10.1501C10.4262 17.54 10.6501 17.3162 10.6501 17.04V14.79C10.6501 14.5139 10.4262 14.29 10.1501 14.29Z" fill="#99A1BE"/>
<path id="Vector_3" d="M6.09009 24.2898H10.1501C10.4301 24.2898 10.6501 24.5198 10.6501 24.7898V27.0298C10.6501 27.3098 10.4201 27.5298 10.1501 27.5298H6.09009C5.81009 27.5298 5.59009 27.2998 5.59009 27.0298V24.7898C5.59009 24.5098 5.82009 24.2798 6.10009 24.2798L6.09009 24.2898Z" fill="#99A1BE"/>
<path id="Vector_4" d="M21.24 14.29H25.3C25.58 14.29 25.81 14.52 25.81 14.8V17.04C25.81 17.32 25.58 17.54 25.31 17.54H21.25C20.97 17.54 20.75 17.31 20.75 17.04V14.8C20.75 14.52 20.98 14.3 21.25 14.3L21.24 14.29Z" fill="#99A1BE"/>
<path id="Vector_5" d="M13.6599 14.2898H17.7199C17.9999 14.2898 18.2199 14.5198 18.2199 14.7898V17.0298C18.2199 17.3098 17.9899 17.5298 17.7199 17.5298H13.6599C13.3799 17.5298 13.1499 17.2998 13.1499 17.0198V14.7798C13.1499 14.4998 13.3799 14.2798 13.6499 14.2798L13.6599 14.2898Z" fill="#99A1BE"/>
<path id="Vector_6" d="M18.2299 24.79C18.2299 24.52 18.0099 24.29 17.7299 24.29H13.6599C13.3899 24.29 13.1599 24.52 13.1599 24.79V27.03C13.1599 27.3 13.3899 27.53 13.6599 27.53H16.7399C17.1299 26.69 17.6299 25.92 18.2299 25.23V24.79Z" fill="#99A1BE"/>
<path id="Vector_7" d="M10.1501 19.29H6.08008C5.80394 19.29 5.58008 19.5139 5.58008 19.79V22.04C5.58008 22.3162 5.80394 22.54 6.08008 22.54H10.1501C10.4262 22.54 10.6501 22.3162 10.6501 22.04V19.79C10.6501 19.5139 10.4262 19.29 10.1501 19.29Z" fill="#99A1BE"/>
<path id="Vector_8" d="M21.23 22.54H21.76C23 21.96 24.37 21.62 25.81 21.58V19.8C25.81 19.52 25.58 19.29 25.3 19.29H21.23C20.96 19.29 20.73 19.52 20.73 19.8V22.03C20.73 22.31 20.96 22.54 21.23 22.54Z" fill="#99A1BE"/>
<path id="Vector_9" d="M13.6599 19.2898H17.7199C17.9999 19.2898 18.2199 19.5198 18.2199 19.7898V22.0298C18.2199 22.3098 17.9899 22.5298 17.7199 22.5298H13.6599C13.3799 22.5298 13.1499 22.2998 13.1499 22.0198V19.7798C13.1499 19.4998 13.3799 19.2798 13.6499 19.2798L13.6599 19.2898Z" fill="#99A1BE"/>
<path id="Vector_10" d="M8.14008 0H10.1501C10.7301 0 11.2101 0.47 11.2101 1.06V5.17C11.2101 5.76 10.7301 6.23 10.1501 6.23H8.14008C7.55008 6.23 7.08008 5.75 7.08008 5.17V1.06C7.08008 0.48 7.55008 0 8.14008 0Z" fill="#99A1BE"/>
<path id="Vector_11" d="M21.2399 0H23.2499C23.8299 0 24.3099 0.47 24.3099 1.06V5.17C24.3099 5.76 23.8299 6.23 23.2499 6.23H21.2399C20.6499 6.23 20.1799 5.75 20.1799 5.17V1.06C20.1799 0.48 20.6499 0 21.2399 0Z" fill="#99A1BE"/>
<path id="Vector_12" d="M26.1501 23.9302C21.7101 23.9302 18.1101 27.5302 18.1101 31.9702C18.1101 36.4102 21.7101 40.0102 26.1501 40.0102C30.5901 40.0102 34.1901 36.4102 34.1901 31.9702C34.1901 27.5302 30.5901 23.9302 26.1501 23.9302ZM29.4301 33.1502H26.1501C25.5001 33.1502 24.9701 32.6202 24.9701 31.9702V27.5102C24.9701 26.8602 25.5001 26.3302 26.1501 26.3302C26.8001 26.3302 27.3301 26.8602 27.3301 27.5102V30.7902H29.4301C30.0801 30.7902 30.6101 31.3202 30.6101 31.9702C30.6101 32.6202 30.0801 33.1502 29.4301 33.1502Z" fill="#4695FC"/>
</g>
<defs>
<clipPath id="clip0_5434_6382">
<rect width="34.18" height="40" fill="white"/>
</clipPath>
</defs>
</svg>
